<svg width="133" height="20" fill="none" xmlns="http://www.w3.org/2000/svg"><path d="M8.936 14.337c0-.724-.188-1.27-.562-1.636-.366-.374-1.038-.76-2.014-1.16-1.782-.675-3.064-1.464-3.845-2.368-.782-.911-1.172-1.985-1.172-3.222 0-1.498.529-2.698 1.587-3.601C3.996 1.438 5.347.982 6.982.982c1.09 0 2.063.232 2.918.696a4.708 4.708 0 011.965 1.941c.464.838.696 1.79.696 2.857H8.984c0-.83-.179-1.461-.537-1.893-.35-.439-.858-.659-1.526-.659-.626 0-1.115.187-1.464.562-.35.366-.525.862-.525 1.49 0 .487.195.93.586 1.33.39.39 1.082.797 2.075 1.22 1.733.627 2.99 1.396 3.772 2.308.79.911 1.184 2.07 1.184 3.479 0 1.546-.492 2.754-1.477 3.625-.985.87-2.324 1.306-4.016 1.306-1.148 0-2.194-.236-3.138-.708a5.35 5.35 0 01-2.221-2.026c-.53-.88-.794-1.917-.794-3.113h3.601c0 1.025.2 1.77.599 2.234.398.464 1.05.696 1.953.696 1.253 0 1.88-.664 1.88-1.99zm9.07-8.545l.097 1.22c.773-.976 1.794-1.464 3.064-1.464 1.318 0 2.25.594 2.795 1.782.757-1.188 1.835-1.782 3.235-1.782 2.312 0 3.495 1.599 3.553 4.797V19h-3.455v-8.435c0-.765-.106-1.31-.318-1.636-.211-.325-.57-.488-1.074-.488-.643 0-1.123.395-1.44 1.184l.024.415V19h-3.454v-8.41c0-.757-.102-1.303-.306-1.636-.203-.342-.565-.513-1.086-.513-.594 0-1.066.321-1.416.964V19H14.77V5.792h3.235zM39.586 19c-.097-.203-.195-.545-.293-1.025-.618.846-1.456 1.27-2.514 1.27-1.107 0-2.027-.367-2.759-1.1-.724-.732-1.086-1.68-1.086-2.844 0-1.383.439-2.453 1.318-3.21.887-.757 2.16-1.144 3.82-1.16h1.05V9.87c0-.594-.101-1.013-.305-1.257-.203-.244-.5-.366-.89-.366-.863 0-1.295.504-1.295 1.513H33.18c0-1.22.455-2.225 1.367-3.015.92-.797 2.08-1.196 3.479-1.196 1.449 0 2.567.378 3.357 1.135.797.749 1.196 1.823 1.196 3.223v6.213c.016 1.14.18 2.03.488 2.674V19h-3.479zm-2.038-2.466c.382 0 .708-.077.976-.232a1.64 1.64 0 00.599-.55v-2.746h-.83c-.586 0-1.05.188-1.392.562-.334.374-.5.875-.5 1.501 0 .977.382 1.465 1.147 1.465zm14.05-7.41l-1.147-.097c-.944 0-1.583.415-1.917 1.245V19h-3.467V5.792h3.26l.097 1.428c.546-1.115 1.298-1.672 2.259-1.672.39 0 .708.053.952.159l-.037 3.418zm6.409-6.58v3.248h1.77v2.6h-1.77v6.555c0 .521.069.88.207 1.075.147.195.423.293.83.293.334 0 .607-.029.818-.086l-.024 2.686c-.586.22-1.22.33-1.904.33-2.23 0-3.357-1.279-3.382-3.834V8.392h-1.526v-2.6h1.526V2.545h3.455zM67.615 19V1.227h4.7c2.075 0 3.727.659 4.956 1.977 1.236 1.318 1.867 3.125 1.892 5.42v2.88c0 2.337-.619 4.172-1.856 5.506-1.229 1.327-2.925 1.99-5.09 1.99h-4.602zm3.589-14.783v11.805h1.074c1.196 0 2.038-.314 2.527-.94.488-.635.744-1.726.769-3.272V8.722c0-1.66-.232-2.816-.696-3.467-.464-.66-1.253-1.005-2.368-1.038h-1.306zm15.71 15.027c-1.774 0-3.157-.529-4.15-1.587-.993-1.058-1.49-2.571-1.49-4.54v-1.05c0-2.084.456-3.691 1.368-4.822.911-1.132 2.217-1.697 3.918-1.697 1.66 0 2.91.533 3.748 1.599.838 1.058 1.265 2.629 1.281 4.712v1.697h-6.872c.049.976.264 1.692.647 2.148.382.448.972.671 1.77.671 1.155 0 2.12-.394 2.893-1.184l1.355 2.088c-.423.586-1.038 1.062-1.843 1.428a6.388 6.388 0 01-2.625.537zm-2.173-8.105h3.455v-.318c-.016-.79-.147-1.387-.39-1.794-.245-.407-.668-.61-1.27-.61-.603 0-1.042.215-1.319.646-.268.432-.427 1.123-.476 2.076zm12.964 2.978l1.672-8.325h3.602L99.353 19h-3.296L92.42 5.792h3.614l1.672 8.325zM108.228 19h-3.467V5.792h3.467V19zm-3.626-16.626c0-.537.171-.977.513-1.318.342-.342.797-.513 1.367-.513s1.025.17 1.367.513c.342.341.513.78.513 1.318 0 .529-.171.968-.513 1.318-.334.35-.789.525-1.367.525s-1.038-.175-1.379-.525c-.334-.35-.501-.789-.501-1.318zm11.072 14.001c1.001 0 1.509-.65 1.526-1.953h3.247c-.016 1.44-.46 2.604-1.331 3.492-.871.887-1.994 1.33-3.369 1.33-1.701 0-2.999-.529-3.894-1.587-.895-1.058-1.351-2.616-1.367-4.675v-1.05c0-2.075.439-3.658 1.318-4.748.887-1.09 2.193-1.636 3.919-1.636 1.456 0 2.604.452 3.442 1.355.838.895 1.266 2.169 1.282 3.82H117.2c-.008-.74-.131-1.31-.367-1.708-.236-.4-.626-.599-1.171-.599-.603 0-1.034.216-1.294.647-.261.424-.399 1.25-.415 2.478v1.343c0 1.075.053 1.827.158 2.259.106.423.281.736.525.94.244.195.59.293 1.038.293zm12.06 2.87c-1.774 0-3.157-.53-4.15-1.588-.993-1.058-1.489-2.571-1.489-4.54v-1.05c0-2.084.455-3.691 1.367-4.822.911-1.132 2.218-1.697 3.918-1.697 1.661 0 2.91.533 3.748 1.599.838 1.058 1.265 2.629 1.282 4.712v1.697h-6.873c.049.976.265 1.692.647 2.148.383.448.973.671 1.77.671 1.156 0 2.12-.394 2.893-1.184l1.355 2.088c-.423.586-1.037 1.062-1.843 1.428a6.392 6.392 0 01-2.625.537zm-2.172-8.106h3.454v-.318c-.016-.79-.146-1.387-.391-1.794-.244-.407-.667-.61-1.269-.61-.602 0-1.042.215-1.318.646-.269.432-.428 1.123-.476 2.076z" fill="#fff"/></svg>