<svg width="105" height="10" fill="none" xmlns="http://www.w3.org/2000/svg"><path d="M2.947 4.96l1.29-4.3h1.517l-2.52 7.3c-.386 1.067-1.043 1.6-1.968 1.6a2.55 2.55 0 01-.686-.105V8.354l.27.017c.359 0 .629-.066.808-.2.184-.128.328-.347.434-.655l.205-.545L.07.66h1.535l1.342 4.3zm7.395.288L12.217.66h1.781V7h-1.424V2.805L10.828 7h-.967L8.11 2.781V7H6.686V.66h1.793l1.863 4.588zM20.97 7h-1.424V4.44H17.08V7h-1.424V.66h1.424v2.643h2.467V.66h1.424V7zm3.052-4.324h1.395c.52 0 .973.09 1.36.27.386.179.679.43.878.755.203.324.305.701.305 1.131 0 .652-.23 1.176-.691 1.57-.461.395-1.075.594-1.84.598H22.6V.66h1.423v2.016zM30.44 7h-1.423V.66h1.424V7zm-6.416-3.182v2.045h1.39c.347 0 .62-.086.82-.258.203-.175.304-.423.304-.744 0-.32-.1-.572-.299-.756-.195-.187-.46-.283-.797-.287h-1.418zm10.917 3.3c-.903 0-1.635-.284-2.198-.85-.558-.57-.838-1.329-.838-2.274v-.176c0-.632.121-1.197.364-1.693.246-.5.59-.889 1.03-1.166a2.719 2.719 0 011.477-.416c.864 0 1.53.275 1.998.826.473.55.71 1.33.71 2.338v.574H33.34c.043.524.217.938.521 1.242.309.305.696.457 1.16.457.653 0 1.184-.263 1.594-.79l.768.732a2.58 2.58 0 01-1.02.885 3.19 3.19 0 01-1.423.31zm-.17-5.432c-.391 0-.708.136-.95.41-.238.273-.39.654-.457 1.142h2.713v-.105c-.031-.477-.158-.836-.38-1.078-.223-.246-.532-.37-.926-.37zm11.8.105h-2.056V7H43.09V1.791h-2.033V.661h5.513v1.13zm3.37 5.326c-.903 0-1.635-.283-2.198-.85-.558-.57-.838-1.328-.838-2.273v-.176c0-.632.121-1.197.364-1.693.246-.5.59-.889 1.03-1.166a2.719 2.719 0 011.477-.416c.864 0 1.53.275 1.998.826.473.55.71 1.33.71 2.338v.574H48.34c.043.524.217.938.521 1.242.309.305.696.457 1.16.457.653 0 1.184-.263 1.594-.79l.768.732a2.58 2.58 0 01-1.02.885 3.19 3.19 0 01-1.423.31zm-.17-5.431c-.391 0-.708.136-.95.41-.238.273-.39.654-.457 1.142h2.713v-.105c-.031-.477-.158-.836-.38-1.078-.223-.246-.532-.37-.926-.37zm6.1 1.06L57.075.66h1.582l-1.94 3.123L58.724 7h-1.57l-1.266-2.168L54.627 7h-1.582l2.004-3.217L53.115.66h1.57l1.184 2.086zM64.997 7h-1.424V4.44h-2.467V7h-1.423V.66h1.423v2.643h2.467V.66h1.424V7zm1.254-3.229c0-.62.123-1.18.37-1.675.245-.5.59-.883 1.036-1.149.445-.27.957-.404 1.535-.404.856 0 1.55.275 2.08.826.536.55.825 1.281.868 2.192l.005.334c0 .625-.12 1.183-.363 1.675a2.64 2.64 0 01-1.031 1.143c-.445.27-.961.404-1.547.404-.894 0-1.611-.297-2.15-.89-.536-.598-.803-1.393-.803-2.385v-.07zm1.424.124c0 .652.135 1.164.404 1.535.27.367.645.55 1.125.55s.854-.187 1.12-.562c.269-.375.403-.924.403-1.647 0-.64-.138-1.148-.415-1.523a1.311 1.311 0 00-1.12-.562c-.465 0-.834.185-1.107.556-.273.367-.41.918-.41 1.653zM78.644.66V7h-1.423V1.809h-1.793l-.117 2.209c-.075 1.062-.28 1.826-.616 2.29-.332.462-.841.692-1.529.692h-.44l-.005-1.184.293-.029c.312-.043.539-.232.68-.568.144-.34.236-.957.275-1.852L74.086.66h4.558zm1.249 3.111c0-.62.123-1.18.369-1.675.246-.5.591-.883 1.037-1.149.445-.27.957-.404 1.535-.404.855 0 1.549.275 2.08.826.535.55.824 1.281.867 2.192l.006.334c0 .625-.121 1.183-.363 1.675a2.64 2.64 0 01-1.031 1.143c-.446.27-.961.404-1.547.404-.895 0-1.612-.297-2.15-.89-.536-.598-.803-1.393-.803-2.385v-.07zm1.423.124c0 .652.135 1.164.405 1.535.27.367.644.55 1.125.55.48 0 .853-.187 1.119-.562.27-.375.404-.924.404-1.647 0-.64-.138-1.148-.416-1.523a1.311 1.311 0 00-1.119-.562c-.465 0-.834.185-1.107.556-.274.367-.41.918-.41 1.653zm9.897-2.086h-2.754V7h-1.418V.66h4.172v1.15zM95.977.66h1.417V7h-1.417V2.77L93.492 7h-1.418V.66h1.418v4.23L95.977.66zm6.89 0h1.418V7h-1.418V2.77L100.383 7h-1.418V.66h1.418v4.23l2.484-4.23z" fill="#788891"/></svg>