<svg width="147" height="20" viewBox="0 0 147 20" fill="none" xmlns="http://www.w3.org/2000/svg">
<path d="M8.93555 14.3369C8.93555 13.6126 8.74837 13.0674 8.37402 12.7012C8.00781 12.3268 7.33643 11.9403 6.35986 11.5415C4.57764 10.866 3.2959 10.0767 2.51465 9.17334C1.7334 8.26188 1.34277 7.18766 1.34277 5.95068C1.34277 4.45329 1.87174 3.25293 2.92969 2.34961C3.99577 1.43815 5.34668 0.982422 6.98242 0.982422C8.07292 0.982422 9.04541 1.21436 9.8999 1.67822C10.7544 2.13395 11.4095 2.78092 11.8652 3.61914C12.3291 4.45736 12.561 5.40951 12.561 6.47559H8.98438C8.98438 5.64551 8.80534 5.01481 8.44727 4.5835C8.09733 4.14404 7.5887 3.92432 6.92139 3.92432C6.29476 3.92432 5.80648 4.11149 5.45654 4.48584C5.10661 4.85205 4.93164 5.34847 4.93164 5.9751C4.93164 6.46338 5.12695 6.9069 5.51758 7.30566C5.9082 7.69629 6.59993 8.10319 7.59277 8.52637C9.32617 9.15299 10.5835 9.92204 11.3647 10.8335C12.1541 11.745 12.5488 12.9046 12.5488 14.3125C12.5488 15.8587 12.0565 17.0672 11.0718 17.938C10.0871 18.8088 8.74837 19.2441 7.05566 19.2441C5.9082 19.2441 4.86247 19.0081 3.91846 18.5361C2.97445 18.0641 2.23389 17.3887 1.69678 16.5098C1.16781 15.6309 0.90332 14.5933 0.90332 13.397H4.50439C4.50439 14.4224 4.70378 15.167 5.10254 15.6309C5.5013 16.0947 6.15234 16.3267 7.05566 16.3267C8.30892 16.3267 8.93555 15.6634 8.93555 14.3369ZM20.0928 19.2441C18.3187 19.2441 16.9352 18.7152 15.9424 17.6572C14.9495 16.5993 14.4531 15.0856 14.4531 13.1162V12.0664C14.4531 9.98307 14.9089 8.37581 15.8203 7.24463C16.7318 6.11344 18.0379 5.54785 19.7388 5.54785C21.3989 5.54785 22.6481 6.08089 23.4863 7.14697C24.3245 8.20492 24.7518 9.77555 24.7681 11.8589V13.5557H17.8955C17.9443 14.5322 18.16 15.2484 18.5425 15.7041C18.925 16.1517 19.515 16.3755 20.3125 16.3755C21.4681 16.3755 22.4325 15.9808 23.2056 15.1914L24.5605 17.2788C24.1374 17.8647 23.5229 18.3408 22.7173 18.707C21.9116 19.0651 21.0368 19.2441 20.0928 19.2441ZM17.9199 11.1387H21.3745V10.8213C21.3582 10.0319 21.228 9.43376 20.9839 9.02686C20.7397 8.61995 20.3166 8.4165 19.7144 8.4165C19.1121 8.4165 18.6727 8.63216 18.396 9.06348C18.1274 9.49479 17.9688 10.1865 17.9199 11.1387ZM33.2397 9.12451L32.0923 9.02686C31.1483 9.02686 30.5094 9.44189 30.1758 10.272V19H26.709V5.79199H29.9683L30.0659 7.22021C30.6112 6.10531 31.3639 5.54785 32.3242 5.54785C32.7148 5.54785 33.0322 5.60075 33.2764 5.70654L33.2397 9.12451ZM39.5752 14.1172L41.2476 5.79199H44.8486L41.2231 19H37.9272L34.2896 5.79199H37.9028L39.5752 14.1172ZM50.0977 19H46.6309V5.79199H50.0977V19ZM46.4722 2.37402C46.4722 1.83691 46.6431 1.39746 46.9849 1.05566C47.3267 0.713867 47.7824 0.542969 48.3521 0.542969C48.9217 0.542969 49.3774 0.713867 49.7192 1.05566C50.061 1.39746 50.2319 1.83691 50.2319 2.37402C50.2319 2.90299 50.061 3.34245 49.7192 3.69238C49.3856 4.04232 48.9299 4.21729 48.3521 4.21729C47.7743 4.21729 47.3145 4.04232 46.9727 3.69238C46.639 3.34245 46.4722 2.90299 46.4722 2.37402ZM57.5439 16.3755C58.5449 16.3755 59.0535 15.7244 59.0698 14.4224H62.3169C62.3006 15.8628 61.8571 17.0265 60.9863 17.9136C60.1156 18.8006 58.9925 19.2441 57.6172 19.2441C55.9163 19.2441 54.6183 18.7152 53.7231 17.6572C52.828 16.5993 52.3722 15.0409 52.356 12.9819V11.9321C52.356 9.85693 52.7954 8.27409 53.6743 7.18359C54.5614 6.0931 55.8675 5.54785 57.5928 5.54785C59.0495 5.54785 60.1969 5.99951 61.0352 6.90283C61.8734 7.79801 62.3006 9.07161 62.3169 10.7236H59.0698C59.0617 9.98307 58.9396 9.41341 58.7036 9.01465C58.4676 8.61589 58.077 8.4165 57.5317 8.4165C56.9295 8.4165 56.4982 8.63216 56.2378 9.06348C55.9774 9.48665 55.839 10.3127 55.8228 11.5415V12.8843C55.8228 13.9585 55.8757 14.7113 55.9814 15.1426C56.0872 15.5658 56.2622 15.8791 56.5063 16.0825C56.7505 16.2778 57.0964 16.3755 57.5439 16.3755ZM69.6045 19.2441C67.8304 19.2441 66.4469 18.7152 65.4541 17.6572C64.4613 16.5993 63.9648 15.0856 63.9648 13.1162V12.0664C63.9648 9.98307 64.4206 8.37581 65.332 7.24463C66.2435 6.11344 67.5496 5.54785 69.2505 5.54785C70.9106 5.54785 72.1598 6.08089 72.998 7.14697C73.8363 8.20492 74.2635 9.77555 74.2798 11.8589V13.5557H67.4072C67.4561 14.5322 67.6717 15.2484 68.0542 15.7041C68.4367 16.1517 69.0267 16.3755 69.8242 16.3755C70.9798 16.3755 71.9442 15.9808 72.7173 15.1914L74.0723 17.2788C73.6491 17.8647 73.0347 18.3408 72.229 18.707C71.4233 19.0651 70.5485 19.2441 69.6045 19.2441ZM67.4316 11.1387H70.8862V10.8213C70.87 10.0319 70.7397 9.43376 70.4956 9.02686C70.2515 8.61995 69.8283 8.4165 69.2261 8.4165C68.6239 8.4165 68.1844 8.63216 67.9077 9.06348C67.6392 9.49479 67.4805 10.1865 67.4316 11.1387ZM82.1655 19V1.22656H86.8652C88.9404 1.22656 90.5924 1.88574 91.8213 3.2041C93.0583 4.52246 93.689 6.3291 93.7134 8.62402V11.5049C93.7134 13.8405 93.0949 15.6756 91.8579 17.0103C90.6291 18.3368 88.9323 19 86.7676 19H82.1655ZM85.7544 4.21729V16.0215H86.8286C88.0249 16.0215 88.8672 15.7082 89.3555 15.0815C89.8438 14.4468 90.1001 13.3563 90.1245 11.8101V8.72168C90.1245 7.06152 89.8926 5.90592 89.4287 5.25488C88.9648 4.5957 88.1755 4.24984 87.0605 4.21729H85.7544ZM101.465 19.2441C99.6908 19.2441 98.3073 18.7152 97.3145 17.6572C96.3216 16.5993 95.8252 15.0856 95.8252 13.1162V12.0664C95.8252 9.98307 96.2809 8.37581 97.1924 7.24463C98.1038 6.11344 99.41 5.54785 101.111 5.54785C102.771 5.54785 104.02 6.08089 104.858 7.14697C105.697 8.20492 106.124 9.77555 106.14 11.8589V13.5557H99.2676C99.3164 14.5322 99.5321 15.2484 99.9146 15.7041C100.297 16.1517 100.887 16.3755 101.685 16.3755C102.84 16.3755 103.805 15.9808 104.578 15.1914L105.933 17.2788C105.509 17.8647 104.895 18.3408 104.089 18.707C103.284 19.0651 102.409 19.2441 101.465 19.2441ZM99.292 11.1387H102.747V10.8213C102.73 10.0319 102.6 9.43376 102.356 9.02686C102.112 8.61995 101.689 8.4165 101.086 8.4165C100.484 8.4165 100.045 8.63216 99.7681 9.06348C99.4995 9.49479 99.3408 10.1865 99.292 11.1387ZM112.256 14.1172L113.928 5.79199H117.529L113.904 19H110.608L106.97 5.79199H110.583L112.256 14.1172ZM122.778 19H119.312V5.79199H122.778V19ZM119.153 2.37402C119.153 1.83691 119.324 1.39746 119.666 1.05566C120.007 0.713867 120.463 0.542969 121.033 0.542969C121.602 0.542969 122.058 0.713867 122.4 1.05566C122.742 1.39746 122.913 1.83691 122.913 2.37402C122.913 2.90299 122.742 3.34245 122.4 3.69238C122.066 4.04232 121.611 4.21729 121.033 4.21729C120.455 4.21729 119.995 4.04232 119.653 3.69238C119.32 3.34245 119.153 2.90299 119.153 2.37402ZM130.225 16.3755C131.226 16.3755 131.734 15.7244 131.75 14.4224H134.998C134.981 15.8628 134.538 17.0265 133.667 17.9136C132.796 18.8006 131.673 19.2441 130.298 19.2441C128.597 19.2441 127.299 18.7152 126.404 17.6572C125.509 16.5993 125.053 15.0409 125.037 12.9819V11.9321C125.037 9.85693 125.476 8.27409 126.355 7.18359C127.242 6.0931 128.548 5.54785 130.273 5.54785C131.73 5.54785 132.878 5.99951 133.716 6.90283C134.554 7.79801 134.981 9.07161 134.998 10.7236H131.75C131.742 9.98307 131.62 9.41341 131.384 9.01465C131.148 8.61589 130.758 8.4165 130.212 8.4165C129.61 8.4165 129.179 8.63216 128.918 9.06348C128.658 9.48665 128.52 10.3127 128.503 11.5415V12.8843C128.503 13.9585 128.556 14.7113 128.662 15.1426C128.768 15.5658 128.943 15.8791 129.187 16.0825C129.431 16.2778 129.777 16.3755 130.225 16.3755ZM142.285 19.2441C140.511 19.2441 139.128 18.7152 138.135 17.6572C137.142 16.5993 136.646 15.0856 136.646 13.1162V12.0664C136.646 9.98307 137.101 8.37581 138.013 7.24463C138.924 6.11344 140.23 5.54785 141.931 5.54785C143.591 5.54785 144.84 6.08089 145.679 7.14697C146.517 8.20492 146.944 9.77555 146.96 11.8589V13.5557H140.088C140.137 14.5322 140.352 15.2484 140.735 15.7041C141.117 16.1517 141.707 16.3755 142.505 16.3755C143.66 16.3755 144.625 15.9808 145.398 15.1914L146.753 17.2788C146.33 17.8647 145.715 18.3408 144.91 18.707C144.104 19.0651 143.229 19.2441 142.285 19.2441ZM140.112 11.1387H143.567V10.8213C143.551 10.0319 143.42 9.43376 143.176 9.02686C142.932 8.61995 142.509 8.4165 141.907 8.4165C141.305 8.4165 140.865 8.63216 140.588 9.06348C140.32 9.49479 140.161 10.1865 140.112 11.1387Z" fill="#203C42"/>
</svg>
